<mxfile host="65bd71144e">
    <diagram id="R4r_3iDBZzRuhiVScvqs" name="全库备份磁盘文件布局">
        <mxGraphModel dx="1292" dy="949" grid="1" gridSize="10" guides="1" tooltips="1" connect="1" arrows="1" fold="1" page="1" pageScale="1" pageWidth="827" pageHeight="1169" math="0" shadow="0">
            <root>
                <mxCell id="0"/>
                <mxCell id="1" parent="0"/>
                <mxCell id="49" value="server@dingo11 backup2 [wip-br-backup] $ tree&#10;.&#10;├── backup.lock&#10;├── backupmeta&#10;├── backupmeta.datafile&#10;├── backupmeta.debug&#10;├── backupmeta.encryption&#10;├── backupmeta.schema&#10;├── coordinator_sdk_meta.sst&#10;├── document-33001&#10;│   ├── 80083_1-1_978fc59c3111564d98846dd4b69633f48c39994a_1737510054_write.sst&#10;│   └── 80084_1-1_543928c583507343d0ecb3bf7252df46fbbc92e3_1737510054_write.sst&#10;├── document-33002&#10;│   ├── 80041_1-1_8d43324f745e360593a5c434fe2691019093b817_1737510054_write.sst&#10;│   └── 80089_1-1_04a023dbd1747818cc30add20d024f85a3429065_1737510055_default.sst&#10;├── document-33003&#10;│   └── 80042_1-1_b890e724165515f2bcbdc85e168b484beb42ba57_1737510054_write.sst&#10;├── document_cf_sst_meta_sdk_data.sst&#10;├── document_cf_sst_meta_sql_data.sst&#10;├── document_region_sdk_data.sst&#10;├── document_region_sql_data.sst&#10;├── index-31001&#10;│   └── 80044_1-1_f31091d7a31383d767646155423f2b46ddc31779_1737510054_write.sst&#10;├── index-31002&#10;│   ├── 80088_1-1_29a6f6a00cbc6cf8a8a4db4434d41ab005e3e13d_1737510057_default.sst&#10;│   ├── 80088_1-1_29a6f6a00cbc6cf8a8a4db4434d41ab005e3e13d_1737510057_vector_scalar.sst&#10;│   └── 80088_1-1_29a6f6a00cbc6cf8a8a4db4434d41ab005e3e13d_1737510057_vector_table.sst&#10;├── index-31003&#10;│   └── 80086_1-1_2a0edcc0162e5beeeb95f6c33872438486d77651_1737510054_write.sst&#10;├── index_cf_sst_meta_sdk_data.sst&#10;├── index_cf_sst_meta_sql_data.sst&#10;├── index_region_sdk_data.sst&#10;├── index_region_sql_data.sst&#10;├── store-30001&#10;│   ├── 80013_1-1_08743b12c856d06d8187e42181bae9283b58263f_1737510055_write.sst&#10;│   ├── 80015_1-1_b6d42656f6b769a28b6201e5cf7c2788acff2edf_1737510055_write.sst&#10;│   ├── 80040_1-1_b65bfe46be6f611de5176ddb841c600e69dc8209_1737510055_write.sst&#10;│   ├── 80055_1-1_ecd7a73cd934da55b06ea0007de4c7cb70b2427b_1737510055_write.sst&#10;│   └── 80087_1-1_98fb0bd5bd60ef58cc6685c75222d4a541efe0ab_1737510055_default.sst&#10;├── store-30002&#10;│   ├── 80043_1-1_2ae13e9fce50298cfb141c70a43bd863dc75c187_1737510055_write.sst&#10;│   ├── 80045_1-1_2d17d07f5c1770bfc7d605bf4fa23402c5c37764_1737510055_data.sst&#10;│   ├── 80045_1-1_2d17d07f5c1770bfc7d605bf4fa23402c5c37764_1737510055_write.sst&#10;│   ├── 80056_1-1_33aca9ff414600fa37edae206d1aadf9e4a52bf9_1737510055_data.sst&#10;│   ├── 80056_1-1_33aca9ff414600fa37edae206d1aadf9e4a52bf9_1737510055_write.sst&#10;│   ├── 80057_1-1_381250a13e9164bfd9aa7f0fef0ce3e12987b61b_1737510055_write.sst&#10;│   └── 80085_1-1_7b3767d00ef97562cda550dfcdafc47be34dcba3_1737510055_write.sst&#10;├── store-30003&#10;│   ├── 80001_1-1_d92861a3732ee2e389491cb5d53b2663dce764ea_1737510057_data.sst&#10;│   ├── 80001_1-1_d92861a3732ee2e389491cb5d53b2663dce764ea_1737510057_write.sst&#10;│   ├── 80002_1-1_f37b1b8c35fcc9a7d305d3522ed7a6cb526040b0_1737510054_data.sst&#10;│   ├── 80002_1-1_f37b1b8c35fcc9a7d305d3522ed7a6cb526040b0_1737510054_write.sst&#10;│   ├── 80003_1-1_2814727d4308302a8260851aa1444364ccf5434a_1737510054_data.sst&#10;│   ├── 80003_1-1_2814727d4308302a8260851aa1444364ccf5434a_1737510054_write.sst&#10;│   ├── 80014_1-1_87fe44f2ca6431dc6a59be3f3541f6184cd871c0_1737510055_data.sst&#10;│   ├── 80014_1-1_87fe44f2ca6431dc6a59be3f3541f6184cd871c0_1737510055_write.sst&#10;│   ├── 80039_1-1_a696fd1df41e2e824835e8d670d8863f921d292c_1737510055_data.sst&#10;│   ├── 80039_1-1_a696fd1df41e2e824835e8d670d8863f921d292c_1737510055_write.sst&#10;│   ├── 80081_1-1_5bcfd59f554ca78e5844fe0efb948509bceace0e_1737510055_data.sst&#10;│   ├── 80081_1-1_5bcfd59f554ca78e5844fe0efb948509bceace0e_1737510055_write.sst&#10;│   └── 80082_1-1_90a12fc2f00319f16c7065e1fff4545ee7f5f837_1737510055_write.sst&#10;├── store_cf_sst_meta_sdk_data.sst&#10;├── store_cf_sst_meta_sql_data.sst&#10;├── store_cf_sst_meta_sql_meta.sst&#10;├── store_region_sdk_data.sst&#10;├── store_region_sql_data.sst&#10;└── store_region_sql_meta.sst&#10;&#10;&#10;9 directories, 56 files&#10;server@dingo11 backup2 [wip-br-backup] $" style="text;whiteSpace=wrap;html=1;" vertex="1" parent="1">
                    <mxGeometry x="270" y="640" width="640" height="1090" as="geometry"/>
                </mxCell>
            </root>
        </mxGraphModel>
    </diagram>
</mxfile>